<svg xmlns="http://www.w3.org/2000/svg" xmlns:xlink="http://www.w3.org/1999/xlink" width="48" viewBox="0 0 36 36.000001" height="48" preserveAspectRatio="xMidYMid meet"><defs><clipPath id="57aca009a5"><path d="M 0.488281 1 L 35.511719 1 L 35.511719 35.027344 L 0.488281 35.027344 Z M 0.488281 1 " clip-rule="nonzero"></path></clipPath></defs><g clip-path="url(#57aca009a5)"><path fill="#2d9df9" d="M 33.757812 20.507812 C 35.519531 19.492188 35.519531 16.949219 33.757812 15.933594 C 32.492188 15.203125 32.0625 13.585938 32.792969 12.324219 C 33.808594 10.5625 32.535156 8.359375 30.503906 8.359375 C 29.042969 8.359375 27.859375 7.179688 27.859375 5.71875 C 27.859375 3.683594 25.660156 2.414062 23.898438 3.429688 C 22.632812 4.160156 21.019531 3.726562 20.289062 2.464844 C 19.273438 0.703125 16.730469 0.703125 15.714844 2.464844 C 14.984375 3.726562 13.367188 4.160156 12.105469 3.429688 C 10.34375 2.414062 8.140625 3.683594 8.140625 5.71875 C 8.140625 7.179688 6.957031 8.359375 5.5 8.359375 C 3.464844 8.359375 2.195312 10.5625 3.210938 12.324219 C 3.941406 13.585938 3.507812 15.203125 2.242188 15.933594 C 0.484375 16.949219 0.484375 19.492188 2.242188 20.507812 C 3.507812 21.238281 3.941406 22.855469 3.210938 24.117188 C 2.195312 25.878906 3.464844 28.082031 5.5 28.082031 C 6.957031 28.082031 8.140625 29.261719 8.140625 30.722656 C 8.140625 32.757812 10.34375 34.027344 12.105469 33.011719 C 13.367188 32.28125 14.984375 32.714844 15.714844 33.976562 C 16.730469 35.738281 19.273438 35.738281 20.289062 33.976562 C 21.019531 32.714844 22.632812 32.28125 23.898438 33.011719 C 25.660156 34.027344 27.859375 32.757812 27.859375 30.722656 C 27.859375 29.261719 29.042969 28.082031 30.503906 28.082031 C 32.535156 28.082031 33.808594 25.878906 32.792969 24.117188 C 32.0625 22.855469 32.492188 21.238281 33.757812 20.507812 " fill-opacity="1" fill-rule="nonzero"></path></g><path fill="#ffffff" d="M 27.410156 13.792969 L 24.933594 11.316406 L 16.09375 20.152344 L 11.816406 15.875 L 9.339844 18.351562 L 13.621094 22.628906 L 13.597656 22.648438 L 16.074219 25.125 L 16.09375 25.105469 L 16.117188 25.125 L 18.59375 22.648438 L 18.570312 22.628906 L 27.410156 13.792969 " fill-opacity="1" fill-rule="nonzero"></path></svg>